<?xml version="1.0" encoding="utf-8"?>
<!-- Generator: Adobe Illustrator 16.0.0, SVG Export Plug-In . SVG Version: 6.00 Build 0)  -->
<!DOCTYPE svg PUBLIC "-//W3C//DTD SVG 1.1//EN" "http://www.w3.org/Graphics/SVG/1.1/DTD/svg11.dtd">
<svg version="1.1" id="Layer_1" xmlns="http://www.w3.org/2000/svg" xmlns:xlink="http://www.w3.org/1999/xlink" x="0px" y="0px"
	 width="841.891px" height="254.328px" viewBox="0 0 841.891 254.328" enable-background="new 0 0 841.891 254.328"
	 xml:space="preserve">
<g>
	<path fill="#4D4D4F" d="M64.67,180.871c0,7.25,0.6,12,1.798,14.248c1.198,2.252,3.346,3.379,6.445,3.379
		c1.229,0,2.514-0.103,3.859-0.308c1.344-0.203,2.951-0.571,4.823-1.098v5.174c-1.929,0.469-3.684,0.832-5.263,1.096
		c-1.579,0.265-3.011,0.396-4.297,0.396c-4.678,0-8.022-1.303-10.042-3.9c-2.016-2.602-3.026-6.941-3.026-13.023v-73.489H47.217v-5
		h11.751V82.824h5.701v25.521h16.926v5H64.67V180.871z"/>
	<path fill="#4D4D4F" d="M101.324,201.565v-93.223h5.789v16.752c2.337-6.199,5.845-10.861,10.524-13.988
		c4.676-3.129,10.436-4.692,17.275-4.692v5.524c-10.056,0.41-17.205,3.916-21.441,10.522c-4.24,6.609-6.358,17.892-6.358,33.851
		v45.254H101.324z"/>
	<path fill="#4D4D4F" d="M225.13,202.091c-0.644,0.059-1.521,0.159-2.63,0.307c-1.11,0.146-1.93,0.222-2.456,0.222
		c-4.269,0-7.368-1.316-9.296-3.947c-1.93-2.629-2.895-6.928-2.895-12.892c-3.741,5.787-8.844,10.263-15.304,13.419
		c-6.459,3.153-13.87,4.733-22.231,4.733c-8.301,0-15.012-2.41-20.126-7.233c-5.117-4.824-7.674-11.15-7.674-18.986
		c0-8.244,2.806-14.529,8.419-18.855c5.612-4.324,15.202-7.455,28.765-9.385c2.397-0.35,5.642-0.758,9.734-1.229
		c12.277-1.4,18.417-4.589,18.417-9.558v-7.894c0-6.313-2.164-11.149-6.489-14.514c-4.327-3.361-10.554-5.043-18.679-5.043
		c-9.296,0-16.62,2.016-21.97,6.053c-5.35,4.031-8.26,9.734-8.727,17.101h-5.349c0.35-8.709,3.696-15.58,10.042-20.611
		c6.343-5.026,14.834-7.539,25.476-7.539c6.49,0,12.058,0.906,16.706,2.72c4.648,1.812,8.201,4.473,10.657,7.979
		c1.401,2.049,2.412,4.373,3.023,6.973c0.616,2.603,0.922,6.709,0.922,12.322v3.945v41.482c0,6.606,0.585,10.946,1.756,13.022
		c1.168,2.076,3.331,3.112,6.487,3.112c0.586,0,1.55-0.09,2.896-0.264c0.232-0.061,0.41-0.09,0.525-0.09L225.13,202.091
		L225.13,202.091z M207.855,148.244c-1.462,1.989-8.01,3.655-19.646,5.002c-1.87,0.231-3.331,0.407-4.384,0.524
		c-13.272,1.697-22.495,4.283-27.668,7.76c-5.175,3.48-7.762,8.554-7.762,15.218c0,6.899,2.046,12.221,6.139,15.961
		c4.092,3.742,9.91,5.612,17.453,5.612c5.027,0,9.867-0.805,14.515-2.409c4.648-1.607,8.666-3.847,12.059-6.711
		c3.448-3.041,5.86-6.445,7.235-10.22c1.371-3.771,2.061-9.428,2.061-16.967v-13.771H207.855z"/>
	<path fill="#4D4D4F" d="M308.21,171.574c-1.111,9.997-4.957,17.92-11.532,23.766c-6.578,5.848-15.013,8.77-25.302,8.77
		c-12.337,0-22.159-4.398-29.467-13.199c-7.31-8.797-10.963-20.68-10.963-35.647c0-15.142,3.653-27.068,10.963-35.779
		c7.308-8.711,17.305-13.067,29.994-13.067c9.822,0,17.86,2.573,24.116,7.719c6.255,5.145,10.027,12.307,11.313,21.486h-5.788
		c-1.288-7.427-4.591-13.316-9.912-17.673c-5.32-4.355-11.897-6.532-19.729-6.532c-10.876,0-19.455,3.901-25.74,11.707
		c-6.285,7.805-9.428,18.52-9.428,32.141c0,13.564,3.143,24.25,9.428,32.055c6.285,7.803,14.864,11.707,25.74,11.707
		c8.184,0,15.112-2.512,20.783-7.543c5.671-5.027,9.033-11.664,10.086-19.906h5.438V171.574z"/>
	<path fill="#4D4D4F" d="M326.501,201.565V72.649h5.788v88.836l53.671-53.143h7.017l-33.94,33.938l39.377,59.283h-6.489
		l-36.833-55.338l-22.802,22.1v33.238L326.501,201.565L326.501,201.565z"/>
	<path fill="#4D4D4F" d="M410.523,201.565v-93.223h5.788v15.262c2.983-5.612,6.941-9.883,11.882-12.807
		c4.939-2.923,10.686-4.386,17.232-4.386c7.191,0,13.17,1.625,17.934,4.869c4.766,3.244,7.996,7.967,9.691,14.162
		c3.156-6.256,7.293-10.99,12.41-14.207c5.115-3.215,11.094-4.824,17.934-4.824c9.764,0,17.115,2.793,22.057,8.375
		c4.941,5.584,7.41,13.9,7.41,24.953v61.824h-5.789v-56.039c0-6.195-0.205-10.832-0.609-13.898
		c-0.412-3.071-1.084-5.743-2.021-8.022c-1.637-3.801-4.311-6.754-8.023-8.858s-8.109-3.156-13.195-3.156
		c-4.506,0-8.625,0.805-12.367,2.412c-3.742,1.606-6.871,3.899-9.383,6.885c-2.518,3.098-4.312,6.693-5.396,10.787
		c-1.082,4.092-1.623,10.639-1.623,19.643v5.523v44.727h-5.521v-56.039c0-6.195-0.205-10.832-0.615-13.897
		c-0.408-3.072-1.109-5.744-2.104-8.023c-1.641-3.801-4.312-6.754-8.025-8.858s-8.082-3.156-13.111-3.156
		c-4.561,0-8.711,0.805-12.453,2.412c-3.742,1.606-6.84,3.899-9.295,6.885c-2.573,3.098-4.386,6.693-5.437,10.787
		c-1.054,4.092-1.579,10.639-1.579,19.643v5.523v44.727h-5.789V201.565z"/>
	<path fill="#4D4D4F" d="M632.861,202.091c-0.643,0.059-1.52,0.159-2.629,0.307c-1.111,0.146-1.93,0.222-2.457,0.222
		c-4.268,0-7.365-1.316-9.295-3.947c-1.93-2.629-2.895-6.928-2.895-12.892c-3.742,5.787-8.844,10.263-15.303,13.419
		c-6.463,3.153-13.871,4.733-22.232,4.733c-8.301,0-15.012-2.41-20.127-7.233c-5.117-4.824-7.674-11.15-7.674-18.986
		c0-8.244,2.807-14.529,8.42-18.855c5.613-4.324,15.199-7.455,28.766-9.385c2.396-0.35,5.641-0.758,9.734-1.229
		c12.277-1.4,18.416-4.589,18.416-9.558v-7.894c0-6.313-2.162-11.149-6.49-14.514c-4.326-3.361-10.553-5.043-18.68-5.043
		c-9.297,0-16.617,2.016-21.969,6.053c-5.35,4.031-8.258,9.734-8.725,17.101h-5.35c0.352-8.709,3.693-15.58,10.041-20.611
		c6.344-5.026,14.834-7.539,25.477-7.539c6.488,0,12.059,0.906,16.707,2.72c4.646,1.812,8.199,4.473,10.654,7.979
		c1.4,2.049,2.41,4.373,3.025,6.973c0.613,2.603,0.92,6.709,0.92,12.322v3.945v41.482c0,6.606,0.584,10.946,1.752,13.022
		c1.17,2.076,3.334,3.112,6.49,3.112c0.584,0,1.549-0.09,2.896-0.264c0.23-0.061,0.408-0.09,0.523-0.09v4.649H632.861z
		 M615.588,148.244c-1.465,1.989-8.012,3.655-19.646,5.002c-1.873,0.231-3.332,0.407-4.385,0.524
		c-13.273,1.697-22.494,4.283-27.668,7.76c-5.176,3.48-7.762,8.554-7.762,15.218c0,6.899,2.045,12.221,6.139,15.961
		c4.092,3.742,9.908,5.612,17.451,5.612c5.027,0,9.867-0.805,14.516-2.409c4.648-1.607,8.666-3.847,12.057-6.711
		c3.449-3.041,5.861-6.445,7.236-10.22c1.373-3.771,2.061-9.428,2.061-16.967v-13.771H615.588z"/>
	<path fill="#4D4D4F" d="M656.359,180.871c0,7.25,0.6,12,1.799,14.248c1.195,2.252,3.348,3.379,6.443,3.379
		c1.229,0,2.514-0.103,3.859-0.308c1.346-0.203,2.951-0.571,4.824-1.098v5.174c-1.93,0.469-3.684,0.832-5.264,1.096
		c-1.578,0.265-3.01,0.396-4.297,0.396c-4.678,0-8.023-1.303-10.041-3.9c-2.02-2.602-3.025-6.941-3.025-13.023v-73.489h-11.752v-5
		h11.752V82.824h5.701v25.521h16.926v5h-16.926V180.871L656.359,180.871z"/>
	<path fill="#4D4D4F" d="M692.773,201.565v-93.223h5.613v93.223H692.773z"/>
	<path fill="#4D4D4F" d="M794.674,171.574c-1.111,9.997-4.953,17.92-11.531,23.766c-6.578,5.848-15.012,8.77-25.301,8.77
		c-12.338,0-22.16-4.398-29.469-13.199c-7.311-8.797-10.963-20.68-10.963-35.647c0-15.142,3.652-27.068,10.963-35.779
		c7.309-8.711,17.307-13.067,29.992-13.067c9.822,0,17.859,2.573,24.117,7.719c6.256,5.145,10.025,12.307,11.312,21.486h-5.787
		c-1.287-7.427-4.592-13.316-9.91-17.673c-5.32-4.354-11.898-6.532-19.732-6.532c-10.875,0-19.455,3.901-25.738,11.707
		c-6.283,7.805-9.428,18.52-9.428,32.141c0,13.564,3.145,24.25,9.428,32.055c6.283,7.803,14.863,11.707,25.738,11.707
		c8.186,0,15.113-2.512,20.785-7.543c5.67-5.027,9.033-11.664,10.086-19.906h5.438V171.574z"/>
	<path fill="#00AEEF" d="M695.56,50.219c-8.893,0-16.111,7.217-16.111,16.115c0,0.186,0,0.383,0.012,0.576
		c0.062,1.69,0.381,3.318,0.928,4.84c3.434,11.307,15.172,26.045,15.172,26.045s11.738-14.738,15.18-26.036
		c0.537-1.529,0.863-3.157,0.92-4.849c0.014-0.193,0.021-0.392,0.021-0.576C711.679,57.436,704.461,50.219,695.56,50.219z
		 M695.56,74.229c-4.357,0-7.893-3.537-7.893-7.896c0-4.364,3.533-7.896,7.893-7.896c4.363,0,7.893,3.53,7.893,7.896
		C703.451,70.692,699.924,74.229,695.56,74.229z"/>
</g>
</svg>
